<svg xmlns="http://www.w3.org/2000/svg" viewBox="0 0 15.65 13.41"><defs><style>.cls-1{fill:#fff;}</style></defs><title>Asset 4</title><g id="Layer_2" data-name="Layer 2"><g id="Layer_1-2" data-name="Layer 1"><path class="cls-1" d="M12.5,10.24H10.94a.33.33,0,1,1,0-.66H12.5a2.11,2.11,0,0,0,1.56-.7,2.76,2.76,0,0,0-2.68-4.7.32.32,0,0,1-.28,0A.33.33,0,0,1,11,3.91,3.61,3.61,0,1,0,3.82,5a.33.33,0,0,1-.32.39H2.76a2.11,2.11,0,0,0,0,4.21H4.71a.33.33,0,1,1,0,.66H2.76a2.76,2.76,0,0,1,0-5.53h.35a4.16,4.16,0,0,1,0-.44,4.27,4.27,0,0,1,8.47-.8,3.42,3.42,0,0,1,4.09,3.35,3.43,3.43,0,0,1-1.13,2.53A2.75,2.75,0,0,1,12.5,10.24Z"/><path class="cls-1" d="M11.62,7.77a.33.33,0,0,1-.19-.06L7.83,5.08,4.22,7.7a.33.33,0,0,1-.39-.53l3.8-2.76a.33.33,0,0,1,.39,0l3.8,2.76a.33.33,0,0,1-.19.59Z"/><path class="cls-1" d="M7.83,13.41a.33.33,0,0,1-.33-.33V4.67a.33.33,0,0,1,.66,0v8.41A.33.33,0,0,1,7.83,13.41Z"/></g></g></svg>