<svg xmlns="http://www.w3.org/2000/svg" viewBox="0 0 13.83 13.83"><defs><style>.cls-1{fill:#fff;}</style></defs><title>Asset 3</title><g id="Layer_2" data-name="Layer 2"><g id="Layer_1-2" data-name="Layer 1"><path class="cls-1" d="M13.12,5.46l-1-.16a5.49,5.49,0,0,0-.39-.94l.57-.8a.85.85,0,0,0-.09-1.1l-.86-.86a.85.85,0,0,0-.6-.25.84.84,0,0,0-.49.16l-.8.57a5.42,5.42,0,0,0-1-.4l-.16-1A.85.85,0,0,0,7.49,0H6.28a.85.85,0,0,0-.84.71l-.17,1a5.34,5.34,0,0,0-.94.4l-.79-.57a.85.85,0,0,0-1.1.09l-.86.86a.85.85,0,0,0-.09,1.1l.58.81a5.34,5.34,0,0,0-.38.94l-1,.16A.85.85,0,0,0,0,6.33V7.55a.85.85,0,0,0,.71.84l1,.17a5.35,5.35,0,0,0,.4.94l-.57.79a.85.85,0,0,0,.09,1.1l.86.86a.85.85,0,0,0,1.1.09l.81-.58a5.46,5.46,0,0,0,.91.38l.16,1a.85.85,0,0,0,.84.71H7.52a.85.85,0,0,0,.84-.71l.16-1a5.47,5.47,0,0,0,.94-.39l.8.57a.85.85,0,0,0,1.1-.09l.86-.86a.86.86,0,0,0,.09-1.1l-.57-.8a5.42,5.42,0,0,0,.39-.94l1-.16a.85.85,0,0,0,.71-.84V6.3a.84.84,0,0,0-.71-.84Zm-.07,2.06A.07.07,0,0,1,13,7.6l-1.21.2a.39.39,0,0,0-.31.29A4.63,4.63,0,0,1,11,9.29a.39.39,0,0,0,0,.42l.71,1a.08.08,0,0,1,0,.1l-.86.86a.07.07,0,0,1-.06,0h0l-1-.71a.39.39,0,0,0-.42,0,4.63,4.63,0,0,1-1.21.5.38.38,0,0,0-.29.31L7.6,13a.07.07,0,0,1-.08.06H6.3A.07.07,0,0,1,6.23,13L6,11.78a.39.39,0,0,0-.29-.31A4.8,4.8,0,0,1,4.56,11a.4.4,0,0,0-.2-.05.38.38,0,0,0-.23.07l-1,.72h0a.08.08,0,0,1-.05,0l-.86-.86a.08.08,0,0,1,0-.1l.71-1a.4.4,0,0,0,0-.43,4.57,4.57,0,0,1-.51-1.21.4.4,0,0,0-.31-.29L.84,7.62a.07.07,0,0,1-.06-.08V6.33a.07.07,0,0,1,.06-.08L2,6.06a.39.39,0,0,0,.31-.29,4.62,4.62,0,0,1,.49-1.21.39.39,0,0,0,0-.42l-.72-1a.08.08,0,0,1,0-.1L3,2.16a.07.07,0,0,1,.05,0h0l1,.71a.4.4,0,0,0,.43,0,4.58,4.58,0,0,1,1.21-.51A.4.4,0,0,0,6,2.06L6.21.84A.07.07,0,0,1,6.28.78H7.5a.07.07,0,0,1,.08.06L7.78,2a.39.39,0,0,0,.29.31,4.69,4.69,0,0,1,1.24.51.39.39,0,0,0,.42,0l1-.72h0a.08.08,0,0,1,.05,0l.86.86a.08.08,0,0,1,0,.1L11,4.1a.39.39,0,0,0,0,.42,4.62,4.62,0,0,1,.5,1.21.38.38,0,0,0,.31.29L13,6.23a.07.07,0,0,1,.06.08V7.52Zm0,0"/><path class="cls-1" d="M6.91,3.93a3,3,0,1,0,3,3,3,3,0,0,0-3-3Zm0,5.19a2.2,2.2,0,1,1,2.2-2.2,2.21,2.21,0,0,1-2.2,2.2Zm0,0"/></g></g></svg>