<svg xmlns="http://www.w3.org/2000/svg" viewBox="0 0 24.21 23"><defs><style>.cls-1{fill:#c6d1e1;}</style></defs><title>Asset 6</title><g id="Layer_2" data-name="Layer 2"><g id="Layer_1-2" data-name="Layer 1"><path class="cls-1" d="M12.14,14a.5.5,0,0,1-.24-.06L.26,7.41a.5.5,0,0,1,0-.87L11.82.06a.5.5,0,0,1,.49,0L24,6.58a.5.5,0,0,1,0,.87L12.39,13.94A.5.5,0,0,1,12.14,14ZM1.52,7l10.62,6L22.68,7,12.06,1.07Z"/><path class="cls-1" d="M12.14,18.5a.5.5,0,0,1-.24-.06L.26,11.91A.5.5,0,0,1,.74,11l11.4,6.39,11.32-6.34A.5.5,0,0,1,24,12L12.39,18.44A.5.5,0,0,1,12.14,18.5Z"/><path class="cls-1" d="M12.14,23a.5.5,0,0,1-.24-.06L.26,16.41a.5.5,0,0,1,.49-.87l11.4,6.39,11.32-6.34a.5.5,0,0,1,.49.87L12.39,22.94A.5.5,0,0,1,12.14,23Z"/></g></g></svg>