<svg xmlns="http://www.w3.org/2000/svg" viewBox="0 0 23.85 21.26"><defs><style>.cls-1{fill:#c6d1e1;}</style></defs><title>Asset 14</title><g id="Layer_2" data-name="Layer 2"><g id="Layer_1-2" data-name="Layer 1"><path class="cls-1" d="M12.21,21.26a6.21,6.21,0,1,1,6.21-6.21A6.21,6.21,0,0,1,12.21,21.26Zm0-11.42a5.21,5.21,0,1,0,5.21,5.21A5.21,5.21,0,0,0,12.21,9.85Z"/><path class="cls-1" d="M15,15.56H9.45a.5.5,0,1,1,0-1H15a.5.5,0,1,1,0,1Z"/><path class="cls-1" d="M12.21,18.32a.5.5,0,0,1-.5-.5V12.29a.5.5,0,0,1,1,0v5.53A.5.5,0,0,1,12.21,18.32Z"/><path class="cls-1" d="M19,15.6H17.92v-1H19a3.22,3.22,0,0,0,2.38-1.06,4.21,4.21,0,0,0-4.08-7.16.49.49,0,0,1-.43-.06A.5.5,0,0,1,16.7,6a5.51,5.51,0,0,0-11,.55,5.39,5.39,0,0,0,.11,1.08.5.5,0,0,1-.49.6H4.21a3.21,3.21,0,1,0,0,6.42h2.3v1H4.21a4.21,4.21,0,1,1,0-8.42h.54a6.51,6.51,0,0,1,12.86-1.9,5.21,5.21,0,0,1,4.52,9A4.18,4.18,0,0,1,19,15.6Z"/></g></g></svg>