<svg xmlns="http://www.w3.org/2000/svg" viewBox="0 0 14.26 14.26"><defs><style>.cls-1{fill:#fff;}</style></defs><title>Asset 1</title><g id="Layer_2" data-name="Layer 2"><g id="Layer_1-2" data-name="Layer 1"><path class="cls-1" d="M4.32,10.25a.31.31,0,0,1-.22-.53L9.54,4.27a.31.31,0,0,1,.44.44L4.54,10.16A.31.31,0,0,1,4.32,10.25Z"/><path class="cls-1" d="M9.7,7.78H9.42a.31.31,0,1,1,.06-.62,2.38,2.38,0,0,0,1.9-.68l1.55-1.55a2.41,2.41,0,0,0,0-3.41l-.18-.18a2.41,2.41,0,0,0-3.41,0L7.8,2.88a2.39,2.39,0,0,0-.69,1.91.31.31,0,0,1-.28.34.32.32,0,0,1-.34-.28,3,3,0,0,1,.87-2.4L8.91.89a3,3,0,0,1,4.29,0l.18.18a3,3,0,0,1,0,4.29L11.82,6.9A3,3,0,0,1,9.7,7.78Z"/><path class="cls-1" d="M3.21,14.26a3,3,0,0,1-2.15-.89l-.17-.18a3,3,0,0,1,0-4.29L2.44,7.36a3,3,0,0,1,2.4-.87.31.31,0,0,1,.28.34.33.33,0,0,1-.34.28,2.4,2.4,0,0,0-1.91.69L1.33,9.35a2.41,2.41,0,0,0,0,3.41l.17.18a2.41,2.41,0,0,0,3.41,0l1.55-1.55a2.39,2.39,0,0,0,.68-1.91.31.31,0,0,1,.28-.34.32.32,0,0,1,.34.28,3,3,0,0,1-.87,2.4L5.35,13.37A3,3,0,0,1,3.21,14.26Z"/></g></g></svg>