<?xml version="1.0" encoding="utf-8"?>
<!-- Generator: Adobe Illustrator 20.1.0, SVG Export Plug-In . SVG Version: 6.00 Build 0)  -->
<!DOCTYPE svg PUBLIC "-//W3C//DTD SVG 1.1//EN" "http://www.w3.org/Graphics/SVG/1.1/DTD/svg11.dtd">
<svg version="1.1" id="Layer_1" xmlns="http://www.w3.org/2000/svg" xmlns:xlink="http://www.w3.org/1999/xlink" x="0px" y="0px"
	 width="24.7px" height="18.8px" viewBox="0 0 24.7 18.8" style="enable-background:new 0 0 24.7 18.8;" xml:space="preserve">
<style type="text/css">
	.st0{fill:#C6D1E1;}
</style>
<g>
	<path class="st0" d="M0.4,3.4v12.1c0,1.7,1.4,3,3,3h9.7c1.7,0,3-1.4,3-3v-2c0-0.3-0.3-0.6-0.6-0.6S15,13.2,15,13.5v2
		c0,1-0.8,1.8-1.8,1.8H3.4c-1,0-1.8-0.8-1.8-1.8V3.4c0-1,0.8-1.8,1.8-1.8h9.7c1,0,1.8,0.8,1.8,1.8v2c0,0.3,0.3,0.6,0.6,0.6
		c0.3,0,0.6-0.3,0.6-0.6v-2c0-1.7-1.4-3-3-3H3.4C1.8,0.4,0.4,1.7,0.4,3.4L0.4,3.4z M0.4,3.4"/>
	<path class="st0" d="M19.1,13.9c0.1,0.1,0.3,0.2,0.4,0.2c0.2,0,0.3-0.1,0.4-0.2l4.1-4.1c0.2-0.2,0.2-0.6,0-0.8L20,4.9
		c-0.2-0.2-0.6-0.2-0.8,0c-0.2,0.2-0.2,0.6,0,0.8l3.1,3.1H11c-0.3,0-0.6,0.3-0.6,0.6c0,0.3,0.3,0.6,0.6,0.6h11.2l-3.1,3.1
		C18.9,13.3,18.9,13.7,19.1,13.9L19.1,13.9z M19.1,13.9"/>
</g>
</svg>
