<svg xmlns="http://www.w3.org/2000/svg" viewBox="0 0 23.85 20.91"><defs><style>.cls-1{fill:#c6d1e1;}</style></defs><title>Asset 12</title><g id="Layer_2" data-name="Layer 2"><g id="Layer_1-2" data-name="Layer 1"><path class="cls-1" d="M23.8,19.29,22.85,16a.49.49,0,0,0-.11-.18,5.51,5.51,0,0,0-3.85-3.62l-.27,0a1.13,1.13,0,0,0-1.15.36,4.28,4.28,0,0,1-3.58,1.22,4.28,4.28,0,0,1-3.58-1.22,1.13,1.13,0,0,0-1.15-.36l-.27.07a5.58,5.58,0,0,0-3.29,2.41H2.78s0,0,0,0,0,0,0-.09l.59-2.09c.52-1.64,1.51-2.14,3.44-2.63a.44.44,0,0,0,.2-.11,2.55,2.55,0,0,0,.52.34.33.33,0,0,0,.2,0,.47.47,0,0,0,.4-.25.45.45,0,0,0-.2-.61A4.2,4.2,0,0,1,6.09,5.56,2.56,2.56,0,0,1,8.63,3a2.86,2.86,0,0,1,.77.11,5.15,5.15,0,0,0-.38,2c0,3.85,2.32,7.09,5.06,7.09s5.09-3.31,5.09-7.09A5.08,5.08,0,0,0,9.82,2.32a3.59,3.59,0,0,0-1.19-.2,3.44,3.44,0,0,0-2.9,1.62.47.47,0,0,0-.14-.09A2.16,2.16,0,0,0,4.53,3.4,2.23,2.23,0,0,0,2.26,5.65a3.88,3.88,0,0,0,.52,1.94,2.9,2.9,0,0,0-2.39,2L0,10.94a.74.74,0,0,0,.11.65.76.76,0,0,0,.63.32H2.51c0,.09-.07.18-.09.27l-.58,2.12a.92.92,0,0,0,.18.86.92.92,0,0,0,.77.38H5.16A3.87,3.87,0,0,0,5,16l-.95,3.31a1.29,1.29,0,0,0,.23,1.1,1.26,1.26,0,0,0,1,.5H22.58a1.23,1.23,0,0,0,1-.5,1.25,1.25,0,0,0,.23-1.13ZM10.36,3.2a.31.31,0,0,0,.07-.09s0-.07,0-.09A4.11,4.11,0,0,1,14.08.9a4.2,4.2,0,0,1,4,2.93A2.12,2.12,0,0,1,15.94,3a.44.44,0,0,0-.63-.09.38.38,0,0,0-.16.23s0,0,0,.07C14.48,4.48,12.37,5,10,4.55a4.68,4.68,0,0,1,.4-1.35ZM11.62,5.6A4.86,4.86,0,0,0,15.67,4a3,3,0,0,0,2,.77,2.4,2.4,0,0,0,.56-.07,2.18,2.18,0,0,1,0,.38c0,3.31-2,6.21-4.19,6.21s-4-2.68-4.16-5.83a9.14,9.14,0,0,0,1.71.16ZM1,11l.32-1.13c.27-.92.83-1.19,2-1.46a.45.45,0,0,0,.18-.09,1.76,1.76,0,0,0,.34.23.34.34,0,0,0,.2,0,.47.47,0,0,0,.41-.25.46.46,0,0,0-.18-.61,2.44,2.44,0,0,1-1-2.09A1.36,1.36,0,0,1,4.53,4.28a1.28,1.28,0,0,1,.65.16.53.53,0,0,0,.18,0,3.4,3.4,0,0,0-.18,1.08A5.75,5.75,0,0,0,6.29,9,5,5,0,0,0,3,11Zm21.92,8.87a.4.4,0,0,1-.29.14H5.28A.4.4,0,0,1,5,19.87a.41.41,0,0,1-.07-.32l.95-3.29A4.6,4.6,0,0,1,9.12,13.1L9.39,13a.29.29,0,0,1,.25.09,5.06,5.06,0,0,0,4.25,1.53,5.06,5.06,0,0,0,4.25-1.53.29.29,0,0,1,.27-.09l.27.07A4.64,4.64,0,0,1,22,16.27l.41,1.4a.36.36,0,0,0,.09.16l.5,1.71a.44.44,0,0,1-.07.34Zm0,0"/></g></g></svg>