<svg xmlns="http://www.w3.org/2000/svg" viewBox="0 0 18.36 20.14"><defs><style>.cls-1{fill:#fff;}</style></defs><title>Asset 15</title><g id="Layer_2" data-name="Layer 2"><g id="Layer_1-2" data-name="Layer 1"><path class="cls-1" d="M17.92,20.14H.43A.43.43,0,0,1,0,19.7V5.13A.43.43,0,0,1,.43,4.7H17.92a.43.43,0,0,1,.43.43V19.7A.43.43,0,0,1,17.92,20.14ZM.87,19.27H17.49V5.57H.87Z"/><path class="cls-1" d="M15.31,17.53H3a.43.43,0,0,1-.43-.43V7.74A.43.43,0,0,1,3,7.31H15.31a.43.43,0,0,1,.43.43V17.1A.43.43,0,0,1,15.31,17.53ZM3.48,16.66h11.4V8.18H3.48Z"/><path class="cls-1" d="M16.81,2.92H1.55a.43.43,0,1,1,0-.87H16.81a.43.43,0,1,1,0,.87Z"/><path class="cls-1" d="M15.07.87H3.29a.43.43,0,1,1,0-.87H15.07a.43.43,0,1,1,0,.87Z"/></g></g></svg>