<svg xmlns="http://www.w3.org/2000/svg" viewBox="0 0 20.15 18.41"><defs><style>.cls-1{fill:#c6d1e1;}</style></defs><title>Asset 9</title><g id="Layer_2" data-name="Layer 2"><g id="Layer_1-2" data-name="Layer 1"><path class="cls-1" d="M18.49.86H.43A.43.43,0,0,1,.43,0H18.49a.43.43,0,0,1,0,.86Z"/><path class="cls-1" d="M3.53,11.47H.43a.43.43,0,0,1,0-.86h3.1a.43.43,0,0,1,0,.86Z"/><path class="cls-1" d="M5.38,16.78h-5a.43.43,0,1,1,0-.86h5a.43.43,0,1,1,0,.86Z"/><path class="cls-1" d="M5.38,6.16h-5a.43.43,0,1,1,0-.86h5a.43.43,0,1,1,0,.86Z"/><path class="cls-1" d="M13.8,18.41H12.19a.87.87,0,0,1-.87-.87v-1a.24.24,0,0,0-.13-.17l-.59-.23a.22.22,0,0,0-.14,0l-.74.74a.89.89,0,0,1-1.22,0L7.36,15.74a.87.87,0,0,1,0-1.22l.74-.74a.24.24,0,0,0,0-.21l-.21-.5a.25.25,0,0,0-.18-.15h-1a.87.87,0,0,1-.87-.87V10.44a.87.87,0,0,1,.87-.87h1a.24.24,0,0,0,.17-.13L8.11,9a.25.25,0,0,0,0-.24L7.36,8a.87.87,0,0,1,0-1.23L8.5,5.61a.89.89,0,0,1,1.23,0l.74.74a.23.23,0,0,0,.14,0l.09,0,.47-.2A.24.24,0,0,0,11.32,6v-1a.87.87,0,0,1,.87-.87H13.8a.87.87,0,0,1,.87.87V6a.24.24,0,0,0,.12.17l.59.23a.23.23,0,0,0,.15,0l.74-.74a.89.89,0,0,1,1.23,0l1.14,1.14a.87.87,0,0,1,0,1.22l-.74.74a.24.24,0,0,0,0,.21l.21.5a.24.24,0,0,0,.18.15h1a.87.87,0,0,1,.87.87v1.61a.87.87,0,0,1-.87.87h-1a.24.24,0,0,0-.17.12l-.2.5a.25.25,0,0,0,0,.24l.74.74a.87.87,0,0,1,0,1.22l-1.14,1.14a.89.89,0,0,1-1.22,0l-.74-.74a.23.23,0,0,0-.14,0l-.09,0-.47.19a.25.25,0,0,0-.15.18v1A.87.87,0,0,1,13.8,18.41ZM10.6,15.24a1,1,0,0,1,.45.1l.44.18a1.07,1.07,0,0,1,.68,1v1h1.64v-1a1.08,1.08,0,0,1,.7-1l.45-.18a1.15,1.15,0,0,1,1.17.21l.73.73L18,15.13l-.73-.75a1.07,1.07,0,0,1-.19-1.2l.18-.44a1.07,1.07,0,0,1,1-.68h1V10.44H18.25a1.08,1.08,0,0,1-1-.71l-.18-.44a1.06,1.06,0,0,1,.21-1.17L18,7.37,16.88,6.21,16.13,7a1.11,1.11,0,0,1-1.19.2L14.49,7a1.07,1.07,0,0,1-.68-1v-1H12.19V6a1.08,1.08,0,0,1-.71,1L11,7.16a1.15,1.15,0,0,1-1.17-.21l-.74-.74L8,7.35l.74.75a1.07,1.07,0,0,1,.19,1.2l-.18.44a1.07,1.07,0,0,1-1,.68h-1v1.62H7.74a1.08,1.08,0,0,1,1,.71l.18.45a1.06,1.06,0,0,1-.21,1.17L8,15.12,9.1,16.27l.75-.74A1.07,1.07,0,0,1,10.6,15.24ZM13,13.79a2.55,2.55,0,1,1,2.55-2.55A2.55,2.55,0,0,1,13,13.79Zm0-4.25a1.7,1.7,0,1,0,1.7,1.7A1.7,1.7,0,0,0,13,9.55Z"/></g></g></svg>