<svg xmlns="http://www.w3.org/2000/svg" viewBox="0 0 22.83 22.63"><defs><style>.cls-1{fill:#c6d1e1;}</style></defs><title>Asset 11</title><g id="Layer_2" data-name="Layer 2"><g id="Layer_1-2" data-name="Layer 1"><path class="cls-1" d="M3,4.79.93,2.7a.36.36,0,0,0-.59.12A4.53,4.53,0,0,0,6,8.83l8,8a4.56,4.56,0,0,0,1.13,4.5,4.54,4.54,0,0,0,4.92,1,.36.36,0,0,0,.12-.59L18,19.61l.09-1.68,1.68-.09,2.09,2.09a.37.37,0,0,0,.33.1.36.36,0,0,0,.26-.22,4.53,4.53,0,0,0-5.78-6L8.84,6A4.55,4.55,0,0,0,7.75,1.33a4.54,4.54,0,0,0-4.92-1A.37.37,0,0,0,2.6.6a.36.36,0,0,0,.1.33L4.8,3,4.71,4.7ZM21,15.4A3.8,3.8,0,0,1,22,19L20.2,17.21a.35.35,0,0,0-.28-.11l-2.17.11a.36.36,0,0,0-.34.34l-.12,2.17a.36.36,0,0,0,.1.28L19.2,21.8a3.86,3.86,0,0,1-.9.11A3.81,3.81,0,1,1,21,15.4Zm-5-1.18-.35.23-.12.09a4.23,4.23,0,0,0-.4.35,4.16,4.16,0,0,0-.3.34l-.08.1-.2.28-.06.1c-.07.12-.14.24-.2.36L6.69,8.53h0a4.51,4.51,0,0,0,.49-.31l.11-.08a4.49,4.49,0,0,0,.44-.38,4.11,4.11,0,0,0,.38-.44l.1-.13a4.86,4.86,0,0,0,.26-.41l0-.07L16,14.17l-.07,0ZM5.42,2.62,3.63.83A3.89,3.89,0,0,1,4.54.72a3.79,3.79,0,0,1,2.7,1.12,3.83,3.83,0,0,1,.89,4l0,.05,0,.07a3.73,3.73,0,0,1-2,2.1L6,8.05l-.06,0A3.81,3.81,0,0,1,.84,3.63L2.63,5.42a.36.36,0,0,0,.27.1l2.17-.12a.36.36,0,0,0,.34-.34L5.53,2.9a.36.36,0,0,0-.11-.28Zm0,0"/></g></g></svg>