<?xml version="1.0" encoding="utf-8"?>
<!-- Generator: Adobe Illustrator 20.1.0, SVG Export Plug-In . SVG Version: 6.00 Build 0)  -->
<!DOCTYPE svg PUBLIC "-//W3C//DTD SVG 1.1//EN" "http://www.w3.org/Graphics/SVG/1.1/DTD/svg11.dtd">
<svg version="1.1" id="Layer_1" xmlns="http://www.w3.org/2000/svg" xmlns:xlink="http://www.w3.org/1999/xlink" x="0px" y="0px"
	 width="31px" height="31px" viewBox="0 0 31 31" style="enable-background:new 0 0 31 31;" xml:space="preserve">
<style type="text/css">
	.st0{fill:#3B95D2;}
</style>
<g>
	<path class="st0" d="M27.6,15.5c0,6.6-5.4,12.1-12.1,12.1S3.4,22.1,3.4,15.5S8.9,3.4,15.5,3.4c1.2,0,2.3,0.1,3.3,0.4l2.4-2.4
		c-1.8-0.6-3.8-1.1-5.7-1.1C7.2,0.4,0.4,7.2,0.4,15.5s6.8,15.1,15.1,15.1s15.1-6.8,15.1-15.1H27.6z M9.3,12.6l-2.1,2.1l6.8,6.8
		L29.1,6.5L27,4.3l-13,13L9.3,12.6z"/>
</g>
</svg>
