<svg xmlns="http://www.w3.org/2000/svg" viewBox="0 0 17.63 23"><defs><style>.cls-1{fill:#c6d1e1;}</style></defs><title>Asset 5</title><g id="Layer_2" data-name="Layer 2"><g id="Layer_1-2" data-name="Layer 1"><path class="cls-1" d="M15.72,16.44l-3.66-1.83a1,1,0,0,1-.56-.91v-1.3l.28-.37a8.75,8.75,0,0,0,1.13-2.22,1.52,1.52,0,0,0,.89-1.38V6.9a1.53,1.53,0,0,0-.38-1v-2a3.44,3.44,0,0,0-.8-2.5A4.83,4.83,0,0,0,8.82,0,4.82,4.82,0,0,0,5,1.35a3.43,3.43,0,0,0-.8,2.5v2a1.53,1.53,0,0,0-.38,1V8.43a1.52,1.52,0,0,0,.57,1.19A8,8,0,0,0,5.75,12.4v1.27a1,1,0,0,1-.53.89L1.8,16.42a3.46,3.46,0,0,0-1.8,3V20.7C0,22.52,5.77,23,8.82,23s8.82-.48,8.82-2.3V19.53a3.44,3.44,0,0,0-1.91-3.09Zm1.14,4.26c0,.52-2.84,1.53-8.05,1.53s-8-1-8-1.53V19.46a2.69,2.69,0,0,1,1.4-2.36l3.42-1.87a1.78,1.78,0,0,0,.93-1.56V12.13L6.43,12A7.23,7.23,0,0,1,5.12,9.31l0-.15L5,9.08a.76.76,0,0,1-.35-.64V6.9a.75.75,0,0,1,.26-.56L5,6.22V3.78a2.65,2.65,0,0,1,.61-1.92A4.12,4.12,0,0,1,8.82.77,4.13,4.13,0,0,1,12,1.85a2.69,2.69,0,0,1,.62,1.93V6.22l.13.12A.75.75,0,0,1,13,6.9V8.43a.76.76,0,0,1-.54.73l-.19.06-.06.19a8,8,0,0,1-1.09,2.19,4.86,4.86,0,0,1-.32.41l-.1.11V13.7a1.77,1.77,0,0,0,1,1.59l3.66,1.83a2.67,2.67,0,0,1,1.49,2.41Zm0,0"/></g></g></svg>