<svg xmlns="http://www.w3.org/2000/svg" viewBox="0 0 18.36 18.36"><defs><style>.cls-1{fill:#c6d1e1;}</style></defs><title>Asset 13</title><g id="Layer_2" data-name="Layer 2"><g id="Layer_1-2" data-name="Layer 1"><path class="cls-1" d="M18,18.36H.4A.4.4,0,0,1,0,18V.4A.4.4,0,0,1,.4,0H18a.4.4,0,0,1,.4.4V18A.4.4,0,0,1,18,18.36ZM.81,17.55H17.55V.81H.81Z"/><path class="cls-1" d="M17.66,5.51H.69a.4.4,0,1,1,0-.81h17a.4.4,0,1,1,0,.81Z"/><path class="cls-1" d="M2.76,1.86a.89.89,0,1,0,.89.89.89.89,0,0,0-.89-.89Z"/><path class="cls-1" d="M5.33,1.86a.89.89,0,1,0,.89.89.89.89,0,0,0-.89-.89Z"/><path class="cls-1" d="M7.89,1.86a.89.89,0,1,0,.89.89.89.89,0,0,0-.89-.89Z"/><path class="cls-1" d="M9.18,8.74H3.67a.4.4,0,1,1,0-.81H9.18a.4.4,0,1,1,0,.81Z"/><path class="cls-1" d="M9.18,11.29H3.67a.4.4,0,1,1,0-.81H9.18a.4.4,0,1,1,0,.81Z"/><path class="cls-1" d="M9.18,13.84H3.67a.4.4,0,1,1,0-.81H9.18a.4.4,0,1,1,0,.81Z"/><path class="cls-1" d="M14.69,13.84H11.19a.4.4,0,0,1-.4-.4V8.34a.4.4,0,0,1,.4-.4h3.49a.4.4,0,0,1,.4.4v5.11A.4.4,0,0,1,14.69,13.84ZM11.6,13h2.69V8.74H11.6Z"/></g></g></svg>